inDegrees=yes
name=ik_tiny_file
DataType=double
version=3
OpenSimVersion=4.4-2022-07-23-0e9fedc
endheader
time	pelvis_tilt	pelvis_list	pelvis_rotation	pelvis_tx	pelvis_ty	pelvis_tz	hip_flexion_r	hip_adduction_r	hip_rotation_r	knee_angle_r	knee_angle_r_beta	ankle_angle_r	subtalar_angle_r	mtp_angle_r	hip_flexion_l	hip_adduction_l	hip_rotation_l	knee_angle_l	knee_angle_l_beta	ankle_angle_l	subtalar_angle_l	mtp_angle_l	lumbar_extension	lumbar_bending	lumbar_rotation	arm_flex_r	arm_add_r	arm_rot_r	elbow_flex_r	pro_sup_r	wrist_flex_r	wrist_dev_r	arm_flex_l	arm_add_l	arm_rot_l	elbow_flex_l	pro_sup_l	wrist_flex_l	wrist_dev_l
5.2	-177.8587894152592	-32.05984192912833	-38.61386607347717	0	0.9399999999999999	0	23.64708583636699	-9.091821952134449	0	43.9649110939646	0.7673324539362644	-2.861877804228135	0	0	23.64708583636699	-9.091821952134449	0	43.9649110939646	0.7673324539362644	-2.861877804228135	0	0	36.39037932554746	40.79461182682515	61.67077206738303	89.99131562604238	89.99742440989276	89.99131449042709	23.99798447536826	44.82761159178796	0	5.301438033164268	89.99416829913051	48.48070635722491	-0.7426065434363693	36.9203473858352	44.82761159178796	0	5.301438033164268
5.23	-177.8677898035191	-32.07477460695144	-38.6118117083807	0	0.9399999999999999	0	23.65273189056846	-9.092595608767793	0	43.96819842085809	0.7673898286141452	-2.862599656793595	0	0	23.65273189056846	-9.092595608767793	0	43.96819842085809	0.7673898286141452	-2.862599656793595	0	0	36.37833590572963	40.81421577015214	61.65487946123854	89.99129211407644	89.99742549077116	89.99129080555913	24.01878291909209	44.82772765060881	0	5.300982545073001	89.99417547616854	48.45677980225868	-0.7522981038786194	36.94744588902473	44.82772765060881	0	5.300982545073001
5.27	-177.8724137005657	-32.05355270748434	-38.61407004050206	0	0.9399999999999999	0	23.6635393120424	-9.094077343109786	0	43.97448347185529	0.7674995234477019	-2.863981631305891	0	0	23.6635393120424	-9.094077343109786	0	43.97448347185529	0.7674995234477019	-2.863981631305891	0	0	36.40699876764317	40.8036107762977	61.67342819248769	89.99131127698038	89.99742478279319	89.99131034054386	23.98898286106205	44.82794992660138	0	5.300110459531019	89.99417095262976	48.47838256841369	-0.7594554862918989	36.92422691343735	44.82794992660138	0	5.300110459531019
5.3	-177.8726694821585	-32.06586187103275	-38.61810452955876	0	0.9399999999999999	0	23.66923703191683	-9.094856851819163	0	43.97780156180707	0.7675574350422379	-2.864710031891148	0	0	23.66923703191683	-9.094856851819163	0	43.97780156180707	0.7675574350422379	-2.864710031891148	0	0	36.40417609456416	40.81518147046216	61.64670755519782	89.99129271019588	89.99742481811876	89.99129140880225	24.01901237087079	44.82806692446882	0	5.299652407987104	89.99417584430709	48.4447948832354	-0.7578565409667171	36.93119289986379	44.82806692446882	0	5.299652407987104
5.33	-177.8653384265039	-32.05498097843036	-38.61267486379784	0	0.9399999999999999	0	23.67792698486793	-9.096046038070858	0	43.98285808259866	0.7676456879787467	-2.865821088605191	0	0	23.67792698486793	-9.096046038070858	0	43.98285808259866	0.7676456879787467	-2.865821088605191	0	0	36.40692310620223	40.80205407075087	61.66229821932093	89.99130748061633	89.9974243832167	89.99130651659324	24.00041505428354	44.82824541759564	0	5.298953901431722	89.99417112288876	48.47067613742862	-0.7460258298581207	36.91512457454299	44.82824541759564	0	5.298953901431722
5.37	-177.86551479082	-32.07101746410569	-38.61495096283423	0	0.9399999999999999	0	23.68389658194096	-9.096861723982153	0	43.9863346858646	0.7677063661525229	-2.866584209139468	0	0	23.68389658194096	-9.096861723982153	0	43.9863346858646	0.7677063661525229	-2.866584209139468	0	0	36.38723066279125	40.8101976684103	61.65099290790224	89.99129868980521	89.99742489400508	89.99129745932832	24.01962646401784	44.82836789819667	0	5.298475370254351	89.99417410181401	48.45694393217529	-0.7438917798513475	36.92929077470353	44.82836789819667	0	5.298475370254351
5.4	-177.8622113225421	-32.05287566289966	-38.61468705564742	0	0.9399999999999999	0	23.69499360623445	-9.098378644571913	0	43.99279059033292	0.7678190429416892	-2.868003006469744	0	0	23.69499360623445	-9.098378644571913	0	43.99279059033292	0.7678190429416892	-2.868003006469744	0	0	36.39614454111216	40.79769396966609	61.67827173486465	89.99131706188469	89.99742467967037	89.9913161027918	23.99794482844045	44.82859567794702	0	5.297585825744523	89.99417028345583	48.47981116210923	-0.7464834445451254	36.91323574876957	44.82859567794702	0	5.297585825744523
5.43	-177.8642076072873	-32.0715934693544	-38.61515902213227	0	0.9399999999999999	0	23.70064604877879	-9.099149609833681	0	43.99608372198763	0.7678765189317657	-2.868725504979666	0	0	23.70064604877879	-9.099149609833681	0	43.99608372198763	0.7678765189317657	-2.868725504979666	0	0	36.3850001542982	40.8093838584757	61.6533477627047	89.99129983553239	89.99742498579974	89.99129851711186	24.02598060468292	44.82871150995292	0	5.297134462806575	89.99417477991521	48.45326680261069	-0.7451917236211445	36.93386885599514	44.82871150995292	0	5.297134462806575
5.47	-177.8657255838761	-32.05926124266394	-38.61842745776466	0	0.9399999999999999	0	23.71256653533806	-9.100776598794232	0	44.00301943151458	0.7679975698989729	-2.87024948572744	0	0	23.71256653533806	-9.100776598794232	0	44.00301943151458	0.7679975698989729	-2.87024948572744	0	0	36.3966264905014	40.80079511117707	61.6772848110432	89.99131777844644	89.99742426837147	89.99131659048386	23.99203941708289	44.82895594542055	0	5.296182239469391	89.99416879213432	48.48647615156226	-0.7458364358365753	36.91213340135729	44.82895594542055	0	5.296182239469391
5.5	-177.8679061975749	-32.07396194216544	-38.61432070661819	0	0.9399999999999999	0	23.71823621979111	-9.101548609018234	0	44.00632335848626	0.7680552343028741	-2.870974125287884	0	0	23.71823621979111	-9.101548609018234	0	44.00632335848626	0.7680552343028741	-2.870974125287884	0	0	36.39031606705444	40.81766901066367	61.65230158607838	89.99129477445696	89.99742525230697	89.99129345727864	24.01206371922573	44.82907199946305	0	5.295731195038824	89.99417460058078	48.45624950889601	-0.7519421809106365	36.9273179625575	44.82907199946305	0	5.295731195038824
5.53	-177.8626229883114	-32.05151369400365	-38.61205989595214	0	0.9399999999999999	0	23.72875845727034	-9.102982104346946	0	44.01244818884878	0.7681621327588263	-2.872319186406942	0	0	23.72875845727034	-9.102982104346946	0	44.01244818884878	0.7681621327588263	-2.872319186406942	0	0	36.40822485426255	40.79485701988799	61.67154169213528	89.99132258479216	89.99742432998019	89.99132153520881	23.99383768386266	44.82928749059595	0	5.294893960383804	89.9941673382352	48.4849069822961	-0.7373491149944901	36.90061934231358	44.82928749059595	0	5.294893960383804
5.57	-177.8682276264975	-32.07426013377255	-38.61555229521803	0	0.9399999999999999	0	23.73476213525874	-9.103798464489461	0	44.01594684738684	0.7682231958697184	-2.873086474509926	0	0	23.73476213525874	-9.103798464489461	0	44.01594684738684	0.7682231958697184	-2.873086474509926	0	0	36.38872311870896	40.80507254732206	61.64964246774824	89.99130609692254	89.99742482595654	89.99130488388091	24.01825412996542	44.82941027075288	0	5.294417874296501	89.99417136640726	48.47083093354958	-0.7352101291580816	36.92681175939423	44.82941027075288	0	5.294417874296501
